<?xml version="1.0" encoding="UTF-8" standalone="no"?>
<!-- Created with Inkscape (http://www.inkscape.org/) -->

<svg
   width="26.925579mm"
   height="7.950263mm"
   viewBox="0 0 26.925579 7.950263"
   version="1.1"
   id="svg1"
   inkscape:version="1.4.2 (f4327f4, 2025-05-13)"
   sodipodi:docname="logo-axis.svg"
   xmlns:inkscape="http://www.inkscape.org/namespaces/inkscape"
   xmlns:sodipodi="http://sodipodi.sourceforge.net/DTD/sodipodi-0.dtd"
   xmlns="http://www.w3.org/2000/svg"
   xmlns:svg="http://www.w3.org/2000/svg">
  <sodipodi:namedview
     id="namedview1"
     pagecolor="#ffffff"
     bordercolor="#000000"
     borderopacity="0.25"
     inkscape:showpageshadow="2"
     inkscape:pageopacity="0.0"
     inkscape:pagecheckerboard="0"
     inkscape:deskcolor="#d1d1d1"
     inkscape:document-units="mm"
     inkscape:zoom="0.73851712"
     inkscape:cx="35.882716"
     inkscape:cy="69.734335"
     inkscape:window-width="1920"
     inkscape:window-height="1009"
     inkscape:window-x="-8"
     inkscape:window-y="-8"
     inkscape:window-maximized="1"
     inkscape:current-layer="layer1" />
  <defs
     id="defs1" />
  <g
     inkscape:label="Camada 1"
     inkscape:groupmode="layer"
     id="layer1"
     transform="translate(-95.5145,-129.91042)">
    <g
       id="g20-4-5-5"
       transform="translate(-159.9321,120.37392)">
      <path
         id="path12-4-4-4-8"
         style="font-size:11.1661px;line-height:1.3;font-family:Montserrat;-inkscape-font-specification:Montserrat;letter-spacing:1.13242px;fill:#dc965a;fill-opacity:1;stroke-width:0.685874;stroke-linecap:round;stroke-linejoin:round;paint-order:markers stroke fill"
         d="m 256.17759,16.749758 -0.30127,0.670243 h 3.49229 l 0.49506,-0.670243 z" />
      <path
         style="font-size:11.1661px;line-height:1.3;font-family:Montserrat;-inkscape-font-specification:Montserrat;letter-spacing:1.13242px;fill:#3a435e;fill-opacity:1;stroke-width:0.685874;stroke-linecap:round;stroke-linejoin:round;paint-order:markers stroke fill"
         d="m 271.7923,17.419762 -2.98135,-4.042128 2.76919,-3.7741409 h -0.89329 l -2.34488,3.1935039 -2.35604,-3.1935039 h -0.94912 l 2.78036,3.7964739 -2.97019,4.019795 h 0.94912 l 2.51238,-3.439158 2.52353,3.439158 z"
         id="path14-6-3-2" />
      <path
         id="path12-0-1-5"
         style="font-size:11.1661px;line-height:1.3;font-family:Montserrat;-inkscape-font-specification:Montserrat;letter-spacing:1.13242px;fill:#3a435e;fill-opacity:1;stroke-width:0.685874;stroke-linecap:round;stroke-linejoin:round;paint-order:markers stroke fill"
         d="m 259.02003,9.6034061 -3.57343,7.8165769 h 0.8599 l 0.93793,-2.088244 0.30127,-0.670244 1.87637,-4.198193 1.87585,4.198193 0.30128,0.670244 0.93793,2.088244 h 0.87074 l -3.57291,-7.8165769 z" />
      <path
         style="font-size:11.1661px;line-height:1.3;font-family:Montserrat;-inkscape-font-specification:Montserrat;letter-spacing:0.523875px;fill:#3a435e;fill-opacity:1;stroke-width:0.685874;stroke-linecap:round;stroke-linejoin:round;paint-order:markers stroke fill"
         d="m 279.45782,17.486762 c 1.99874,0 2.91436,-0.982617 2.91436,-2.132725 0,-2.847355 -4.81259,-1.552088 -4.81259,-3.695979 0,-0.781627 0.63646,-1.418095 2.06573,-1.418095 0.69229,0 1.47392,0.212156 2.14389,0.647634 l 0.27915,-0.6588 c -0.6253,-0.4354779 -1.54092,-0.6922979 -2.42304,-0.6922979 -1.98757,0 -2.88086,0.9937829 -2.88086,2.1438909 0,2.89202 4.81259,1.57442 4.81259,3.718311 0,0.770461 -0.63647,1.384597 -2.09923,1.384597 -1.02728,0 -2.02106,-0.40198 -2.57937,-0.949119 l -0.32381,0.636468 c 0.58064,0.602969 1.73074,1.016115 2.90318,1.016115 z"
         id="path18-6-2-4" />
      <path
         style="font-size:11.1661px;line-height:1.3;font-family:Montserrat;-inkscape-font-specification:Montserrat;letter-spacing:0.523875px;fill:#3a435e;fill-opacity:1;stroke-width:0.685874;stroke-linecap:round;stroke-linejoin:round;paint-order:markers stroke fill"
         d="m 273.76033,17.419762 h 0.82629 V 9.6034931 h -0.82629 z"
         id="path13-61-33-4" />
    </g>
  </g>
</svg>
